<svg id="Layer_1" enable-background="new 0 0 510 510" height="512" viewBox="0 0 510 510" width="512" xmlns="http://www.w3.org/2000/svg"><g><g><g><path d="m502.093 318.121c.236-.91.463-1.826.688-2.743-.222.917-.455 1.83-.688 2.743z" fill="#b1e4f9"/></g><g><path d="m367.098 25.897-95.813-25.385c-5.384-.34-10.815-.512-16.285-.512-31.356 0-58.864 5.651-81.787 13.345-48.817 16.384-82.383 67.077-82.496 67.141-3.787 17.481-4.832 17.805-4.832 36.42 0 140.833 118.763 254.972 259.596 254.972 60.017 0 115.159-27.944 158.719-62.639.178-1.087 5.8-23.477 5.8-54.239 0-100.612-58.269-187.615-142.902-229.103z" fill="#f1d333"/></g><g><path d="m345.459 364.679c-140.833 0-255-114.167-255-255 0-9.113.482-18.112 1.419-26.976l-.439-23.326c-55.887 46.776-91.439 117.043-91.439 195.623 0 59.068 20.091 113.439 53.802 156.67h402.375c21.272-27.285 37.119-59.008 45.916-93.549.233-.913.466-1.826.688-2.743.106-.436 1.068-4.522 1.418-6.139-43.559 34.695-98.724 55.44-158.74 55.44z" fill="#ffa50a"/></g></g><g><path d="m176.052 411.219 9.819 10.223c51.479 53.593 128.642 73.896 199.798 52.47.216-.065.327-.099.327-.099 27.224-16.339 51.146-37.617 70.53-62.594z" fill="#ffebb4"/></g><g><path d="m346.74 476.815c-65.655 0-125.492-24.835-170.688-65.596h-122.596c14.716 18.958 32.047 35.786 51.452 49.94l90.075 41.736c19.246 4.644 39.344 7.105 60.017 7.105 47.903 0 92.703-13.229 130.986-36.206-12.794 1.978-25.897 3.021-39.246 3.021z" fill="#f9c55d"/></g><g><path d="m304.341 156.909-22.226-23.565c-.322.279-5.263 4.552-5.357 4.633-101.424 90.093-158.266 203.251-171.844 323.175 26.595 19.396 57.082 33.767 90.074 41.726l-.449-2.822c.104-2.699-32.167-138.28 80.252-304.099 15.831-23.474 29.47-38.945 29.55-39.048z" fill="#934e37"/></g><g><path d="m285.045 136.451-2.931-3.107c-.322.279-5.263 4.552-5.357 4.633-101.423 90.093-158.265 203.251-171.843 323.175 26.595 19.396 57.082 33.767 90.074 41.726l-.449-2.822c.025-.647-1.812-8.963-3.069-23.493-23.019 2.269-42.499-16.864-40.602-39.916 8.973-109.079 53.378-213.175 134.177-300.196z" fill="#844332"/></g><g><path d="m299.104 59.377-20.257 31.119c8.877 31.897 14.381 54.63 14.381 54.63s23.882-20.726 44.663-50.593l-16.029-20.171 25.52 5.407c5.744-9.747 10.823-20.151 14.51-30.904l-28.386-10.452 33.52-11.772c.025-.245.043-.487.066-.73-14.355-7.037-29.468-12.763-45.184-17.024-16.285-4.415-45.453-4.168-46.143-2.28l27.083 21.138-32.46 2.642c-2.002 14.01-2.532 17.463 0 31.706z" fill="#7dbe3b"/></g><g><path d="m290.711 62.683-20.27 25.509c8.877 31.897 22.787 56.934 22.787 56.934l28.679-136.238c-16.286-4.417-33.216-7.259-50.623-8.356-.776 1.764-1.517 3.582-2.207 5.47l23.449 17.56-28.225 1.35c-2.002 14.01-1.033 28.807 1.499 43.05z" fill="#5ea570"/></g><g><path d="m461.417 109.843c-56.633-22.422-176.703 23.33-176.703 23.33s45.931 14.391 92.83 30.772l13.32-27.973 1.899 33.351c8.143 2.913 16.163 5.845 23.827 8.732l15.678-32.927 2.271 39.884c8.223 3.329 15.539 6.659 22.043 9.916l18.639-39.145 2.927 51.405c19.503 12.688 25.799 22.122 25.799 22.122s14.104-97.045-42.53-119.467z" fill="#7dbe3b"/></g><g><g><path d="m476.107 171.342 2.041 35.845c19.503 12.688 25.799 22.122 25.799 22.122s-3.463-32.08-27.84-57.967z" fill="#5ea570"/></g><g><path d="m284.715 133.173s45.931 14.391 92.83 30.772l13.32-27.973 1.899 33.351c8.143 2.913 16.163 5.845 23.827 8.732l15.678-32.927 2.271 39.884c8.223 3.329 15.539 6.659 22.043 9.916l13.864-29.116c-7.885-7.104-17.586-13.473-29.527-18.201-56.634-22.423-156.205-14.438-156.205-14.438z" fill="#5ea570"/></g></g><g><path d="m179.402 14.627c-2.079-.555-4.141-.969-6.187-1.277-48.813 16.385-76.842 42.027-76.956 42.09-.006.005-.011.01-.017.014-1.617 1.288-3.212 2.604-4.797 3.93-10.982 14.093-17.339 25.907-17.339 25.907s11.337-10.61 43.126-6.705l17.615-26.403 5.505 30.385c7.021 1.318 19.189 4.771 20.257 5.064l16.067-30.165 7.493 34.569c10.409 3.204 14.432 5.262 25.101 9.028l15.633-14.532 2.054 21.138c42.732 15.591 74.208 36.153 74.208 36.153s-62.912-113.493-121.763-129.196z" fill="#7dbe3b"/></g><g><path d="m134.079 55.137 1.783 31.323c7.021 1.318 14.656 3.023 22.974 5.242 1.053.281 2.115.57 3.183.864l13.463-28.275 1.865 32.757c10.409 3.204 21.192 6.817 31.86 10.583l10.357-12.828.962 16.892c42.732 15.591 80.637 32.126 80.637 32.126s-68.256-76.51-127.107-92.213-99.95 33.683-99.95 33.683 14.429-5.172 46.218-1.266z" fill="#5ea570"/></g><g><path d="m442.19 260.907-30.974-5.063 24.683-13.951c-1.609-3.483-3.488-6.986-5.679-10.496-4.68-7.498-10.794-14.998-17.849-22.356l-32.105 6.756 22.249-16.407c-7.608-7.033-15.909-13.868-24.457-20.375l-28.793 4.099 17.165-12.658c-38.842-27.679-78.514-47.538-78.514-47.538s6.404 28.326 12.068 69.522l27.743-1.761-23.387 20.59c2.136 13.731 2.231 18.854 5.772 32.254l40.734-6.165-31.706 38.752 11.67 19.156 34.128-16.073-16.514 34.569c35.622 31.076 76.492 24.36 76.492 24.36s26.011-34.939 17.274-77.215z" fill="#7dbe3b"/></g><g><path d="m287.917 122.919s.331 35.54 5.994 76.737l26.036-5.566-24.63 15.175c2.136 13.731 4.887 27.818 8.428 41.218l40.072-8.242-31.455 34.891c3.092 7.797 6.57 14.993 10.493 21.278 1.355 2.171 2.77 4.219 4.229 6.175l29.284-16.719-17.201 29.806c35.622 31.076 85.75 20.45 85.75 20.45z" fill="#5ea570"/></g><g><path d="m237.073 176.824c-2.348 2.536-4.672 5.083-6.958 7.648 11.215 6.294 24.218 15.195 34.646 26.797 1.828-2.89 3.71-5.793 5.626-8.703-10.319-10.966-22.489-19.49-33.314-25.742z" fill="#664545"/></g><g><path d="m199.838 129.406 8 14.417-22.5-13.423c-14.72 1.362-29.687 3.876-43.959 8.065l11.342 20.44-32.048-12.566c-12.026 5.797-21.653 12.853-29.333 20.254l13.25 12.421-23.154-1.451c-16.173 20.612-19.467 40.417-19.467 40.417s11.722 11.53 33.251 18.693l20.248-31.717-7.479 35.107c15.513 3.118 34.655 3.441 56.973-2.798l1.014-33.796 14.522 28.436c12.657-5.237 24.743-12.344 35.958-20.345l1.042-34.73 12.45 24.379c21.73-17.829 48.992-40.546 58.732-57.385 6.499-11.236-.763-20.904-.763-20.904s-39.591 4.281-88.079 6.486z" fill="#5ea570"/></g><g><path d="m61.967 217.981s11.722 11.53 33.251 18.693l20.248-31.717-7.479 35.107c15.513 3.118 34.655 3.441 56.973-2.798l1.014-33.796 14.522 28.436c12.657-5.237 24.743-12.344 35.958-20.345l1.042-34.73 12.45 24.379c21.73-17.829 48.992-40.546 58.732-57.385 6.499-11.236-.763-20.904-.763-20.904z" fill="#679b48"/></g><g><path d="m115.855 468.707c3.175 2.072 6.4 4.073 9.672 6.004 17.882-10.304 40.319-20.674 64.802-26.027.005-3.282.054-6.693.163-10.246-27.613 5.673-52.249 17.312-69.896 27.479-1.619.932-3.198 1.863-4.741 2.79z" fill="#664545"/></g><g><path d="m118.145 390.595c34.706 3.988 61.523 19.817 73.485 28.084.31-3.685.689-7.482 1.132-11.372-14.093-9.14-39.514-22.552-71.91-26.507-.934 3.258-1.841 6.522-2.707 9.795z" fill="#664545"/></g><g><path d="m141.297 338.56c-2.721 1.33-5.305 2.674-7.753 4.012-1.865 4.927-3.651 9.876-5.352 14.849 16.919-10.723 45.51-24.814 80.719-26.453 1.03-3.339 2.108-6.708 3.247-10.115-29.319.662-54.032 9.483-70.861 17.707z" fill="#664545"/></g><g><path d="m173.387 260.971c-1.751 2.884-3.466 5.781-5.153 8.689 14.147 6.886 34.946 19.229 48.807 37.324 1.315-3.553 2.703-7.143 4.143-10.76-14.601-16.922-33.966-28.482-47.797-35.253z" fill="#664545"/></g><g><path d="m229.491 224.903c-14.363 1.307-26.812 3.766-37.298 7.333-3.617 5.142-7.12 10.329-10.519 15.557 20.183-11.667 51.126-13.779 69.514-13.889 1.879-3.313 3.834-6.647 5.826-9.992-6.873-.115-16.646.001-27.523.991z" fill="#664545"/></g></g></svg>