<svg width="20" height="20" viewBox="0 0 20 20" fill="none" xmlns="http://www.w3.org/2000/svg">
<circle cx="10" cy="10" r="10" fill="#EC1F46"/>
<path d="M12.45 12.15V13H7.78V12.23L10.23 9.54C10.5433 9.19333 10.77 8.88 10.91 8.6C11.0567 8.31333 11.13 8.03 11.13 7.75C11.13 7.39 11.0267 7.11667 10.82 6.93C10.6133 6.73667 10.3133 6.64 9.92 6.64C9.26 6.64 8.6 6.9 7.94 7.42L7.57 6.66C7.85 6.4 8.20667 6.19333 8.64 6.04C9.07333 5.88 9.51 5.8 9.95 5.8C10.63 5.8 11.1667 5.97 11.56 6.31C11.96 6.65 12.16 7.11 12.16 7.69C12.16 8.10333 12.07 8.49667 11.89 8.87C11.71 9.23667 11.41 9.64667 10.99 10.1L9.09 12.15H12.45Z" fill="white"/>
</svg>
